<?xml version="1.0" standalone="no"?>
<!DOCTYPE svg PUBLIC "-//W3C//DTD SVG 20010904//EN"
 "http://www.w3.org/TR/2001/REC-SVG-20010904/DTD/svg10.dtd">
<svg version="1.0" xmlns="http://www.w3.org/2000/svg"
 width="687.000000pt" height="231.000000pt" viewBox="0 0 687.000000 231.000000"
 preserveAspectRatio="xMidYMid meet">

<g transform="translate(0.000000,231.000000) scale(0.100000,-0.100000)"
fill="#ffffff" stroke="none">
<path d="M3812 2190 c-40 -10 -101 -34 -135 -52 -59 -32 -167 -127 -200 -177
l-16 -24 -58 19 c-42 14 -87 19 -163 19 -134 0 -219 -25 -324 -96 -286 -191
-343 -583 -123 -849 83 -101 93 -107 868 -503 158 -81 292 -147 297 -147 6 0
45 67 86 149 41 82 88 173 104 202 16 30 99 192 185 360 157 305 197 407 197
496 0 33 0 33 -49 33 l-48 0 -7 -49 c-11 -87 -42 -155 -224 -509 -99 -191
-203 -393 -232 -450 l-52 -103 -141 74 c-78 41 -281 145 -451 232 -169 87
-335 178 -367 202 -230 169 -264 490 -73 701 138 154 365 200 553 112 35 -17
65 -29 66 -28 1 2 16 28 34 60 35 62 132 158 190 187 110 57 255 69 371 32 55
-17 117 -51 177 -96 9 -7 23 0 49 27 l37 36 -62 45 c-139 103 -330 141 -489
97z"/>
<path d="M4172 1905 c-206 -45 -380 -207 -435 -406 -33 -117 -30 -241 9 -354
13 -39 150 -342 159 -353 3 -3 83 35 93 43 1 1 -31 71 -72 156 -41 85 -81 178
-90 208 -32 108 -17 262 36 365 26 52 109 138 167 175 235 150 562 56 684
-196 12 -24 26 -43 31 -43 6 0 30 9 53 20 99 44 241 51 348 15 73 -25 174 -96
217 -152 150 -198 138 -449 -29 -624 -32 -34 -76 -72 -99 -85 -86 -50 -948
-454 -955 -447 -3 5 -33 64 -64 133 -32 69 -59 126 -61 128 -6 8 -84 -40 -84
-52 0 -8 37 -90 81 -184 l82 -170 61 28 c84 38 664 314 864 411 149 72 170 86
235 152 118 118 177 254 177 407 0 377 -361 660 -720 566 l-65 -17 -14 23 c-8
13 -47 56 -87 96 -140 140 -333 198 -522 157z"/>
<path d="M1625 1526 c-125 -59 -168 -178 -107 -298 l28 -55 -55 -44 c-76 -61
-93 -89 -99 -152 -6 -72 10 -117 59 -166 79 -79 206 -93 354 -40 l87 32 24
-27 c24 -25 28 -26 145 -26 73 0 119 4 117 10 -1 5 -32 41 -67 80 l-64 72 62
56 62 57 -68 68 -69 68 -58 -51 c-31 -27 -60 -50 -64 -50 -4 0 -24 19 -44 43
l-36 44 50 43 c56 48 78 90 78 150 0 83 -43 148 -125 186 -67 32 -143 32 -210
0z m150 -166 c18 -20 18 -21 -1 -47 -34 -45 -52 -51 -75 -24 -22 26 -25 61 -7
79 19 19 63 14 83 -8z m-77 -353 c23 -23 42 -48 42 -54 0 -12 -59 -33 -94 -33
-28 0 -56 29 -56 57 0 23 40 73 57 73 5 0 28 -19 51 -43z"/>
<path d="M6315 1541 c-54 -14 -129 -59 -166 -98 -84 -89 -114 -180 -107 -328
5 -121 31 -187 104 -265 68 -72 137 -103 244 -108 99 -5 148 11 212 66 l35 32
7 -40 6 -40 55 0 55 0 0 205 0 205 -165 0 -165 0 0 -60 0 -60 85 0 c95 0 100
-5 71 -73 -35 -83 -149 -121 -244 -82 -82 35 -123 103 -130 217 -8 138 36 240
121 279 90 40 194 10 232 -68 l20 -42 81 -1 82 0 -10 43 c-12 56 -51 121 -91
151 -71 53 -118 69 -212 72 -49 2 -103 0 -120 -5z"/>
<path d="M165 1527 c-3 -6 -4 -183 -3 -392 l3 -380 97 -3 97 -3 3 148 3 148
138 3 137 3 0 89 0 90 -140 0 -140 0 0 55 0 55 200 0 200 0 0 100 0 100 -295
0 c-228 0 -297 -3 -300 -13z"/>
</g>
</svg>
