<svg version="1.2" xmlns="http://www.w3.org/2000/svg" viewBox="0 0 540 231" width="540" height="231"><style>.a{fill:#fff}</style><path class="a" d="m234.2 12c-4 1-10.1 3.4-13.5 5.2-5.9 3.2-16.7 12.7-20 17.7l-1.6 2.4-5.8-1.9c-4.2-1.4-8.7-1.9-16.3-1.9-13.4 0-21.9 2.5-32.4 9.6-28.6 19.1-34.3 58.3-12.3 84.9 8.3 10.1 9.3 10.7 86.8 50.3 15.8 8.1 29.2 14.7 29.7 14.7 0.6 0 4.5-6.7 8.6-14.9 4.1-8.2 8.8-17.3 10.4-20.2 1.6-3 9.9-19.2 18.5-36 15.7-30.5 19.7-40.7 19.7-49.6 0-3.3 0-3.3-4.9-3.3h-4.8l-0.7 4.9c-1.1 8.7-4.2 15.5-22.4 50.9-9.9 19.1-20.3 39.3-23.2 45l-5.2 10.3-14.1-7.4c-7.8-4.1-28.1-14.5-45.1-23.2-16.9-8.7-33.5-17.8-36.7-20.2-23-16.9-26.4-49-7.3-70.1 13.8-15.4 36.5-20 55.3-11.2 3.5 1.7 6.5 2.9 6.6 2.8 0.1-0.2 1.6-2.8 3.4-6 3.5-6.2 13.2-15.8 19-18.7 11-5.7 25.5-6.9 37.1-3.2 5.5 1.7 11.7 5.1 17.7 9.6 0.9 0.7 2.3 0 4.9-2.7l3.7-3.6-6.2-4.5c-13.9-10.3-33-14.1-48.9-9.7z"/><path class="a" d="m270.2 40.5c-20.6 4.5-38 20.7-43.5 40.6-3.3 11.7-3 24.1 0.9 35.4 1.3 3.9 15 34.2 15.9 35.3 0.3 0.3 8.3-3.5 9.3-4.3 0.1-0.1-3.1-7.1-7.2-15.6-4.1-8.5-8.1-17.8-9-20.8-3.2-10.8-1.7-26.2 3.6-36.5 2.6-5.2 10.9-13.8 16.7-17.5 23.5-15 56.2-5.6 68.4 19.6 1.2 2.4 2.6 4.3 3.1 4.3 0.6 0 3-0.9 5.3-2 9.9-4.4 24.1-5.1 34.8-1.5 7.3 2.5 17.4 9.6 21.7 15.2 15 19.8 13.8 44.9-2.9 62.4-3.2 3.4-7.6 7.2-9.9 8.5-8.6 5-94.8 45.4-95.5 44.7-0.3-0.5-3.3-6.4-6.4-13.3-3.2-6.9-5.9-12.6-6.1-12.8-0.6-0.8-8.4 4-8.4 5.2 0 0.8 3.7 9 8.1 18.4l8.2 17 6.1-2.8c8.4-3.8 66.4-31.4 86.4-41.1 14.9-7.2 17-8.6 23.5-15.2 11.8-11.8 17.7-25.4 17.7-40.7 0-37.7-36.1-66-72-56.6l-6.5 1.7-1.4-2.3c-0.8-1.3-4.7-5.6-8.7-9.6-14-14-33.3-19.8-52.2-15.7z"/><path class="a" d="m484.5 76.9c-5.4 1.4-12.9 5.9-16.6 9.8-8.4 8.9-11.4 18-10.7 32.8 0.5 12.1 3.1 18.7 10.4 26.5 6.8 7.2 13.7 10.3 24.4 10.8 9.9 0.5 14.8-1.1 21.2-6.6l3.5-3.2 0.7 4 0.6 4h5.5 5.5v-20.5-20.5h-16.5-16.5v6 6h8.5c9.5 0 10 0.5 7.1 7.3-3.5 8.3-14.9 12.1-24.4 8.2-8.2-3.5-12.3-10.3-13-21.7-0.8-13.8 3.6-24 12.1-27.9 9-4 19.4-1 23.2 6.8l2 4.2 8.1 0.1h8.2l-1-4.3c-1.2-5.6-5.1-12.1-9.1-15.1-7.1-5.3-11.8-6.9-21.2-7.2-4.9-0.2-10.3 0-12 0.5z"/><path class="a" d="m14.5 76.3c-0.3 0.6-0.4 18.3-0.3 39.2l0.3 38 9.7 0.3 9.7 0.3 0.3-14.8 0.3-14.8 13.8-0.3 13.7-0.3v-8.9-9h-14-14v-5.5-5.5h20 20v-10-10h-29.5c-22.8 0-29.7 0.3-30 1.3z"/></svg>